<svg width="21" height="21" viewBox="0 0 21 21" fill="none" xmlns="http://www.w3.org/2000/svg">
<path d="M13.3054 12.0988L11.1858 14.2183L11.1858 5.61421C11.1858 5.17239 10.8277 4.81421 10.3858 4.81421C9.944 4.81421 9.58582 5.17239 9.58582 5.61421L9.58583 14.3189L7.36568 12.0988C7.05327 11.7864 6.54673 11.7864 6.23431 12.0988C5.9219 12.4112 5.9219 12.9177 6.23431 13.2302L9.76985 16.7657C10.0823 17.0781 10.5888 17.0781 10.9012 16.7657L14.4368 13.2302C14.7492 12.9177 14.7492 12.4112 14.4368 12.0988C14.1243 11.7864 13.6178 11.7864 13.3054 12.0988Z" fill="#123456"/>
<path fill-rule="evenodd" clip-rule="evenodd" d="M21 10.5C21 16.299 16.299 21 10.5 21C4.70101 21 0 16.299 0 10.5C0 4.70101 4.70101 0 10.5 0C16.299 0 21 4.70101 21 10.5ZM19.4 10.5C19.4 15.4153 15.4153 19.4 10.5 19.4C5.58467 19.4 1.6 15.4153 1.6 10.5C1.6 5.58467 5.58467 1.6 10.5 1.6C15.4153 1.6 19.4 5.58467 19.4 10.5Z" fill="#123456"/>
</svg>
